<svg xmlns="http://www.w3.org/2000/svg" viewBox="0 0 48 48">
  <path fill="#FF9900" d="M26.54,35.55c-3.14,2.31-7.7,3.54-11.62,3.54c-5.5,0-10.45-2.03-14.2-5.42c-0.29-0.27-0.03-0.64,0.32-0.43c4.04,2.35,9.05,3.77,14.22,3.77c3.49,0,7.32-0.72,10.84-2.22C26.73,34.5,27.17,35.06,26.54,35.55z M27.9,33.97c-0.4-0.51-2.65-0.24-3.66-0.12c-0.31,0.04-0.35-0.23-0.08-0.42c1.79-1.26,4.73-0.89,5.07-0.47c0.34,0.42-0.09,3.35-1.76,4.75c-0.26,0.21-0.5,0.1-0.39-0.18C27.48,36.58,28.3,34.48,27.9,33.97z M24.89,12.24v-1.23c0-0.19,0.14-0.31,0.31-0.31h5.56c0.18,0,0.32,0.13,0.32,0.31v1.05c0,0.18-0.15,0.41-0.42,0.78l-2.88,4.11c1.07-0.03,2.2,0.13,3.17,0.68c0.22,0.12,0.28,0.31,0.29,0.49v1.31c0,0.18-0.2,0.4-0.41,0.29c-1.72-0.9-4-1-5.9,0.01c-0.19,0.1-0.39-0.11-0.39-0.29v-1.24c0-0.2,0-0.55,0.21-0.86l3.34-4.79h-2.91C25.03,12.54,24.89,12.42,24.89,12.24z M8.99,28.72c0-2.33,0.18-4.23,1.32-5.77c0.9-1.23,2.33-1.97,3.89-1.97c2.15,0,3.33,1.04,4.24,2.48l0.35,0.52l0.35-0.52c0.91-1.44,2.09-2.48,4.24-2.48c1.56,0,2.99,0.74,3.89,1.97c1.14,1.54,1.32,3.44,1.32,5.77v0.84c0,4.17-2.59,6.46-6.46,6.46c-1.7,0-3.01-0.44-4.01-1.31l-0.35-0.31v1.31c0,0.17-0.14,0.31-0.31,0.31h-1.86c-0.17,0-0.31-0.14-0.31-0.31V29.56H8.99V28.72z M14.2,23.13c-1.06,0-1.82,0.4-2.29,1.19c-0.57,0.96-0.67,2.29-0.67,3.63v1.61c0,1.34,0.1,2.67,0.67,3.63c0.47,0.79,1.23,1.19,2.29,1.19c1.06,0,1.82-0.4,2.29-1.19c0.57-0.96,0.67-2.29,0.67-3.63v-1.61c0-1.34-0.1-2.67-0.67-3.63C16.02,23.53,15.26,23.13,14.2,23.13z M23.01,23.13c-1.06,0-1.82,0.4-2.29,1.19c-0.57,0.96-0.67,2.29-0.67,3.63v1.61c0,1.34,0.1,2.67,0.67,3.63c0.47,0.79,1.23,1.19,2.29,1.19c1.06,0,1.82-0.4,2.29-1.19c0.57-0.96,0.67-2.29,0.67-3.63v-1.61c0-1.34-0.1-2.67-0.67-3.63C24.83,23.53,24.07,23.13,23.01,23.13z"/>
</svg> 