<svg width="48" height="48" viewBox="0 0 48 48" fill="none" xmlns="http://www.w3.org/2000/svg">
<path d="M31.3892 40.0998C28.7892 41.3998 25.9892 41.9998 23.9892 41.9998C14.6892 41.9998 6.98923 34.2998 6.98923 24.9998C6.98923 15.6998 14.6892 7.99976 23.9892 7.99976C25.9892 7.99976 28.7892 8.59976 31.3892 9.89976C32.0892 10.1998 32.7892 10.5998 33.3892 10.9998L29.6892 14.6998C28.8892 14.2998 27.9892 13.9998 26.9892 13.7998C25.6892 13.5998 24.8892 13.4998 23.9892 13.4998C17.6892 13.4998 12.4892 18.6998 12.4892 24.9998C12.4892 31.2998 17.6892 36.4998 23.9892 36.4998C24.8892 36.4998 25.6892 36.3998 26.9892 36.1998C27.9892 35.9998 28.8892 35.6998 29.6892 35.2998L33.3892 38.9998C32.7892 39.3998 32.0892 39.7998 31.3892 40.0998Z" fill="#A3A3A3"/>
<path d="M37.1892 32.9998L40.8892 29.2998C41.6892 30.2998 41.9892 31.5998 41.9892 32.9998C41.9892 35.7998 40.1892 38.7998 37.1892 39.9998V32.9998Z" fill="#A3A3A3"/>
<path d="M41.9892 16.9998C40.1892 9.19976 33.3892 3.99976 25.3892 4.79976L31.3892 10.7998C35.8892 11.5998 39.3892 15.2998 41.9892 16.9998Z" fill="#A3A3A3"/>
<circle cx="24" cy="24" r="16" fill="url(#paint0_linear_0_1)"/>
<defs>
<linearGradient id="paint0_linear_0_1" x1="8" y1="8" x2="40" y2="40" gradientUnits="userSpaceOnUse">
<stop stop-color="#F77737"/>
<stop offset="1" stop-color="#FEDC15"/>
</linearGradient>
</defs>
</svg>