<svg width="48" height="48" viewBox="0 0 48 48" fill="none" xmlns="http://www.w3.org/2000/svg">
<path d="M24.0005 9.49997C17.7005 9.49997 12.6005 14.6 12.6005 20.9C12.6005 24.6 14.1005 27.9 16.6005 30.3L24.0005 37.7L31.4005 30.3C33.9005 27.9 35.4005 24.6 35.4005 20.9C35.4005 14.6 30.3005 9.49997 24.0005 9.49997Z" fill="#4285F4"/>
<path d="M44 20.05H42.45V18.5H40.9V20.05H39.35V21.6H40.9V23.15H42.45V21.6H44V20.05Z" fill="#EA4335"/>
<path d="M48 17.8H46.45V16.25H44.9V17.8H43.35V19.35H44.9V20.9H46.45V19.35H48V17.8Z" fill="#FBBC04"/>
<path d="M24 16.6C27.3 16.6 30 19.3 30 22.6C30 25.9 27.3 28.6 24 28.6C20.7 28.6 18 25.9 18 22.6C18 19.3 20.7 16.6 24 16.6Z" fill="#34A853"/>
</svg>