<svg width="48" height="48" viewBox="0 0 48 48" fill="none" xmlns="http://www.w3.org/2000/svg">
<path d="M42.6001 19.8C42.6001 19.1 42.5001 18.4 42.4001 17.8H24.0001V22.4H34.4001C34.0001 24.4 32.8001 26.1 31.0001 27.2V30.8H37.1001C40.7001 27.5 42.6001 23.9 42.6001 19.8Z" fill="#4285F4"/>
<path d="M24.0001 34.4C28.4001 34.4 32.1001 33 37.1001 30.8L31.0001 27.2C29.5001 28.1 27.6001 28.7 24.0001 28.7C19.8001 28.7 16.2001 25.4 14.9001 21.1H8.60010V24.8C13.6001 34.6 18.3001 34.4 24.0001 34.4Z" fill="#34A853"/>
<path d="M14.9001 21.1C14.6001 20.1 14.4001 19.1 14.4001 18C14.4001 16.9 14.6001 15.9 14.9001 14.9V11.2H8.60010C7.50010 13.4 6.80010 15.9 6.80010 18.6C6.80010 21.3 7.50010 23.8 8.60010 26V24.8L14.9001 21.1Z" fill="#FBBC04"/>
<path d="M24.0001 7.29997C27.8001 7.29997 31.2001 8.69997 33.8001 11.2L39.2001 5.79997C35.1001 1.99997 29.6001 -0.200031 24.0001 -0.200031C18.3001 -0.200031 13.6001 3.39997 8.60010 11.2L14.9001 14.9C16.2001 10.6 19.8001 7.29997 24.0001 7.29997Z" fill="#EA4335"/>
</svg>